<svg width="26" height="26" viewBox="0 0 26 26" fill="none" xmlns="http://www.w3.org/2000/svg">
<path d="M26 13C26 5.81831 20.1768 0 13 0C5.81831 0 0 5.81831 0 13C0 19.487 4.75231 24.8657 10.9688 25.8399V16.7586H7.66756V13.0008H10.9688V10.1351C10.9688 6.87781 12.9066 5.07894 15.8771 5.07894C17.2998 5.07894 18.7891 5.33244 18.7891 5.33244V8.53125H17.147C15.535 8.53125 15.0312 9.53469 15.0312 10.5625V13H18.6363L18.057 16.7578H15.0312V25.8391C21.2428 24.8649 26 19.4862 26 12.9992V13Z" fill="#042330"/>
</svg>
