<svg width="28" height="28" viewBox="0 0 28 28" fill="none" xmlns="http://www.w3.org/2000/svg">
<path d="M13.9996 10.355C11.9926 10.355 10.3547 11.9929 10.3547 13.9999C10.3547 16.007 11.9926 17.6449 13.9996 17.6449C16.0067 17.6449 17.6446 16.007 17.6446 13.9999C17.6446 11.9929 16.0067 10.355 13.9996 10.355ZM24.9317 13.9999C24.9317 12.4906 24.9453 10.9949 24.8606 9.48821C24.7758 7.73821 24.3766 6.18509 23.0969 4.9054C21.8145 3.62298 20.2641 3.2265 18.5141 3.14173C17.0047 3.05697 15.509 3.07064 14.0024 3.07064C12.493 3.07064 10.9973 3.05697 9.49066 3.14173C7.74066 3.2265 6.18753 3.62572 4.90784 4.9054C3.62542 6.18782 3.22894 7.73821 3.14417 9.48821C3.05941 10.9976 3.07308 12.4933 3.07308 13.9999C3.07308 15.5066 3.05941 17.005 3.14417 18.5117C3.22894 20.2617 3.62816 21.8148 4.90784 23.0945C6.19027 24.3769 7.74066 24.7734 9.49066 24.8581C11 24.9429 12.4957 24.9292 14.0024 24.9292C15.5117 24.9292 17.0075 24.9429 18.5141 24.8581C20.2641 24.7734 21.8172 24.3742 23.0969 23.0945C24.3793 21.812 24.7758 20.2617 24.8606 18.5117C24.9481 17.005 24.9317 15.5093 24.9317 13.9999ZM13.9996 19.6081C10.8961 19.6081 8.39144 17.1034 8.39144 13.9999C8.39144 10.8964 10.8961 8.39173 13.9996 8.39173C17.1032 8.39173 19.6078 10.8964 19.6078 13.9999C19.6078 17.1034 17.1032 19.6081 13.9996 19.6081ZM19.8375 9.47181C19.1129 9.47181 18.5278 8.88665 18.5278 8.16204C18.5278 7.43743 19.1129 6.85228 19.8375 6.85228C20.5621 6.85228 21.1473 7.43743 21.1473 8.16204C21.1475 8.3341 21.1138 8.50452 21.048 8.66352C20.9823 8.82253 20.8858 8.967 20.7642 9.08867C20.6425 9.21033 20.498 9.3068 20.339 9.37255C20.18 9.43829 20.0096 9.47202 19.8375 9.47181Z" fill="#042330"/>
</svg>
